<mxfile host="Electron" agent="Mozilla/5.0 (X11; Linux x86_64) AppleWebKit/537.36 (KHTML, like Gecko) draw.io/27.0.5 Chrome/134.0.6998.205 Electron/35.4.0 Safari/537.36" version="27.0.5">
  <diagram name="Page-1" id="hDKnlDYhPMeLxKIVLqfj">
    <mxGraphModel dx="815" dy="480" grid="1" gridSize="10" guides="1" tooltips="1" connect="1" arrows="1" fold="1" page="1" pageScale="1" pageWidth="827" pageHeight="1169" math="0" shadow="0">
      <root>
        <mxCell id="0" />
        <mxCell id="1" parent="0" />
        <mxCell id="FOV5wTT--X5z5NpUAhja-1" value="" style="rounded=0;whiteSpace=wrap;html=1;" parent="1" vertex="1">
          <mxGeometry x="210" y="260" width="120" height="660" as="geometry" />
        </mxCell>
        <mxCell id="FOV5wTT--X5z5NpUAhja-2" value="" style="rounded=0;whiteSpace=wrap;html=1;" parent="1" vertex="1">
          <mxGeometry x="210" y="340" width="120" height="140" as="geometry" />
        </mxCell>
        <mxCell id="FOV5wTT--X5z5NpUAhja-3" value="Kernel text" style="rounded=0;whiteSpace=wrap;html=1;" parent="1" vertex="1">
          <mxGeometry x="210" y="410" width="120" height="30" as="geometry" />
        </mxCell>
        <mxCell id="FOV5wTT--X5z5NpUAhja-4" value="C0 0000 0000" style="text;html=1;align=center;verticalAlign=middle;whiteSpace=wrap;rounded=0;" parent="1" vertex="1">
          <mxGeometry x="330" y="460" width="130" height="30" as="geometry" />
        </mxCell>
        <mxCell id="FOV5wTT--X5z5NpUAhja-5" value="C0 0020 0000" style="text;html=1;align=center;verticalAlign=middle;whiteSpace=wrap;rounded=0;" parent="1" vertex="1">
          <mxGeometry x="330" y="430" width="130" height="30" as="geometry" />
        </mxCell>
        <mxCell id="FOV5wTT--X5z5NpUAhja-6" value="C0 0100 0000" style="text;html=1;align=center;verticalAlign=middle;whiteSpace=wrap;rounded=0;" parent="1" vertex="1">
          <mxGeometry x="330" y="330" width="130" height="30" as="geometry" />
        </mxCell>
        <mxCell id="FOV5wTT--X5z5NpUAhja-7" value="&lt;font style=&quot;font-size: 10px;&quot;&gt;Kernel end addr&lt;/font&gt;" style="text;html=1;align=center;verticalAlign=middle;whiteSpace=wrap;rounded=0;" parent="1" vertex="1">
          <mxGeometry x="70" y="330" width="140" height="30" as="geometry" />
        </mxCell>
        <mxCell id="FOV5wTT--X5z5NpUAhja-8" value="&lt;font style=&quot;font-size: 10px;&quot;&gt;Base addr&lt;/font&gt;" style="text;html=1;align=center;verticalAlign=middle;whiteSpace=wrap;rounded=0;" parent="1" vertex="1">
          <mxGeometry x="70" y="420" width="140" height="30" as="geometry" />
        </mxCell>
        <mxCell id="FOV5wTT--X5z5NpUAhja-9" value="" style="shape=curlyBracket;whiteSpace=wrap;html=1;rounded=1;labelPosition=left;verticalLabelPosition=middle;align=right;verticalAlign=middle;" parent="1" vertex="1">
          <mxGeometry x="70" y="340" width="20" height="100" as="geometry" />
        </mxCell>
        <mxCell id="FOV5wTT--X5z5NpUAhja-10" value="14MB" style="text;html=1;align=center;verticalAlign=middle;whiteSpace=wrap;rounded=0;" parent="1" vertex="1">
          <mxGeometry x="10" y="375" width="60" height="30" as="geometry" />
        </mxCell>
        <mxCell id="FOV5wTT--X5z5NpUAhja-11" value="C0 4000 0000" style="text;html=1;align=center;verticalAlign=middle;whiteSpace=wrap;rounded=0;" parent="1" vertex="1">
          <mxGeometry x="330" y="250" width="130" height="30" as="geometry" />
        </mxCell>
        <mxCell id="FOV5wTT--X5z5NpUAhja-13" value="" style="shape=curlyBracket;whiteSpace=wrap;html=1;rounded=1;flipH=1;labelPosition=right;verticalLabelPosition=middle;align=left;verticalAlign=middle;" parent="1" vertex="1">
          <mxGeometry x="470" y="260" width="20" height="220" as="geometry" />
        </mxCell>
        <mxCell id="FOV5wTT--X5z5NpUAhja-14" value="1GB" style="text;html=1;align=center;verticalAlign=middle;whiteSpace=wrap;rounded=0;" parent="1" vertex="1">
          <mxGeometry x="500" y="355" width="60" height="30" as="geometry" />
        </mxCell>
        <mxCell id="FOV5wTT--X5z5NpUAhja-15" value="" style="rounded=0;whiteSpace=wrap;html=1;" parent="1" vertex="1">
          <mxGeometry x="210" y="100" width="120" height="160" as="geometry" />
        </mxCell>
        <mxCell id="FOV5wTT--X5z5NpUAhja-18" value="Kernel Stack" style="rounded=0;whiteSpace=wrap;html=1;" parent="1" vertex="1">
          <mxGeometry x="210" y="340" width="120" height="30" as="geometry" />
        </mxCell>
        <mxCell id="FOV5wTT--X5z5NpUAhja-20" value="Boot pgdir" style="rounded=0;whiteSpace=wrap;html=1;" parent="1" vertex="1">
          <mxGeometry x="210" y="310" width="120" height="30" as="geometry" />
        </mxCell>
        <mxCell id="FOV5wTT--X5z5NpUAhja-21" value="C0 0100 1000" style="text;html=1;align=center;verticalAlign=middle;whiteSpace=wrap;rounded=0;" parent="1" vertex="1">
          <mxGeometry x="330" y="300" width="130" height="30" as="geometry" />
        </mxCell>
        <mxCell id="FOV5wTT--X5z5NpUAhja-22" value="Gap" style="rounded=0;whiteSpace=wrap;html=1;" parent="1" vertex="1">
          <mxGeometry x="210" y="480" width="120" height="60" as="geometry" />
        </mxCell>
        <mxCell id="FOV5wTT--X5z5NpUAhja-23" value="3F 0000 0000" style="text;html=1;align=center;verticalAlign=middle;whiteSpace=wrap;rounded=0;" parent="1" vertex="1">
          <mxGeometry x="330" y="520" width="130" height="30" as="geometry" />
        </mxCell>
        <mxCell id="FOV5wTT--X5z5NpUAhja-24" value="Invalid" style="rounded=0;whiteSpace=wrap;html=1;" parent="1" vertex="1">
          <mxGeometry x="210" y="880" width="120" height="40" as="geometry" />
        </mxCell>
        <mxCell id="FOV5wTT--X5z5NpUAhja-25" value="text" style="rounded=0;whiteSpace=wrap;html=1;" parent="1" vertex="1">
          <mxGeometry x="210" y="760" width="120" height="40" as="geometry" />
        </mxCell>
        <mxCell id="FOV5wTT--X5z5NpUAhja-26" value="00 0040 0000" style="text;html=1;align=center;verticalAlign=middle;whiteSpace=wrap;rounded=0;" parent="1" vertex="1">
          <mxGeometry x="330" y="780" width="130" height="30" as="geometry" />
        </mxCell>
        <mxCell id="FOV5wTT--X5z5NpUAhja-27" value="CoW" style="rounded=0;whiteSpace=wrap;html=1;" parent="1" vertex="1">
          <mxGeometry x="210" y="800" width="120" height="40" as="geometry" />
        </mxCell>
        <mxCell id="FOV5wTT--X5z5NpUAhja-28" value="00 003F F000" style="text;html=1;align=center;verticalAlign=middle;whiteSpace=wrap;rounded=0;" parent="1" vertex="1">
          <mxGeometry x="330" y="820" width="130" height="30" as="geometry" />
        </mxCell>
        <mxCell id="FOV5wTT--X5z5NpUAhja-29" value="Temp" style="rounded=0;whiteSpace=wrap;html=1;" parent="1" vertex="1">
          <mxGeometry x="210" y="840" width="120" height="40" as="geometry" />
        </mxCell>
        <mxCell id="FOV5wTT--X5z5NpUAhja-30" value="00 003F E000" style="text;html=1;align=center;verticalAlign=middle;whiteSpace=wrap;rounded=0;" parent="1" vertex="1">
          <mxGeometry x="330" y="860" width="130" height="30" as="geometry" />
        </mxCell>
        <mxCell id="FOV5wTT--X5z5NpUAhja-32" value="User VPT" style="rounded=0;whiteSpace=wrap;html=1;" parent="1" vertex="1">
          <mxGeometry x="210" y="540" width="120" height="40" as="geometry" />
        </mxCell>
        <mxCell id="FOV5wTT--X5z5NpUAhja-33" value="3E C000 0000" style="text;html=1;align=center;verticalAlign=middle;whiteSpace=wrap;rounded=0;" parent="1" vertex="1">
          <mxGeometry x="330" y="560" width="130" height="30" as="geometry" />
        </mxCell>
        <mxCell id="FOV5wTT--X5z5NpUAhja-34" value="Pages" style="rounded=0;whiteSpace=wrap;html=1;" parent="1" vertex="1">
          <mxGeometry x="210" y="580" width="120" height="40" as="geometry" />
        </mxCell>
        <mxCell id="FOV5wTT--X5z5NpUAhja-35" value="3E 8000 0000" style="text;html=1;align=center;verticalAlign=middle;whiteSpace=wrap;rounded=0;" parent="1" vertex="1">
          <mxGeometry x="330" y="600" width="130" height="30" as="geometry" />
        </mxCell>
        <mxCell id="FOV5wTT--X5z5NpUAhja-36" value="Envs" style="rounded=0;whiteSpace=wrap;html=1;" parent="1" vertex="1">
          <mxGeometry x="210" y="620" width="120" height="40" as="geometry" />
        </mxCell>
        <mxCell id="FOV5wTT--X5z5NpUAhja-37" value="3E 4000 0000" style="text;html=1;align=center;verticalAlign=middle;whiteSpace=wrap;rounded=0;" parent="1" vertex="1">
          <mxGeometry x="330" y="640" width="130" height="30" as="geometry" />
        </mxCell>
        <mxCell id="FOV5wTT--X5z5NpUAhja-38" value="User Exception Stack" style="rounded=0;whiteSpace=wrap;html=1;" parent="1" vertex="1">
          <mxGeometry x="210" y="660" width="120" height="40" as="geometry" />
        </mxCell>
        <mxCell id="FOV5wTT--X5z5NpUAhja-39" value="3E 3FFF E000" style="text;html=1;align=center;verticalAlign=middle;whiteSpace=wrap;rounded=0;" parent="1" vertex="1">
          <mxGeometry x="330" y="680" width="130" height="30" as="geometry" />
        </mxCell>
        <mxCell id="FOV5wTT--X5z5NpUAhja-40" value="User Stack" style="rounded=0;whiteSpace=wrap;html=1;" parent="1" vertex="1">
          <mxGeometry x="210" y="700" width="120" height="40" as="geometry" />
        </mxCell>
        <mxCell id="FOV5wTT--X5z5NpUAhja-41" value="" style="shape=curlyBracket;whiteSpace=wrap;html=1;rounded=1;flipH=1;labelPosition=right;verticalLabelPosition=middle;align=left;verticalAlign=middle;" parent="1" vertex="1">
          <mxGeometry x="470" y="530" width="20" height="40" as="geometry" />
        </mxCell>
        <mxCell id="FOV5wTT--X5z5NpUAhja-42" value="1GB" style="text;html=1;align=center;verticalAlign=middle;whiteSpace=wrap;rounded=0;" parent="1" vertex="1">
          <mxGeometry x="510" y="540" width="60" height="30" as="geometry" />
        </mxCell>
        <mxCell id="FOV5wTT--X5z5NpUAhja-43" value="" style="shape=curlyBracket;whiteSpace=wrap;html=1;rounded=1;flipH=1;labelPosition=right;verticalLabelPosition=middle;align=left;verticalAlign=middle;size=0.5;" parent="1" vertex="1">
          <mxGeometry x="470" y="580" width="20" height="40" as="geometry" />
        </mxCell>
        <mxCell id="FOV5wTT--X5z5NpUAhja-44" value="1GB" style="text;html=1;align=center;verticalAlign=middle;whiteSpace=wrap;rounded=0;" parent="1" vertex="1">
          <mxGeometry x="510" y="585" width="60" height="30" as="geometry" />
        </mxCell>
        <mxCell id="FOV5wTT--X5z5NpUAhja-45" value="" style="shape=curlyBracket;whiteSpace=wrap;html=1;rounded=1;flipH=1;labelPosition=right;verticalLabelPosition=middle;align=left;verticalAlign=middle;size=0.5;" parent="1" vertex="1">
          <mxGeometry x="470" y="620" width="20" height="40" as="geometry" />
        </mxCell>
        <mxCell id="FOV5wTT--X5z5NpUAhja-46" value="1GB" style="text;html=1;align=center;verticalAlign=middle;whiteSpace=wrap;rounded=0;" parent="1" vertex="1">
          <mxGeometry x="510" y="625" width="60" height="30" as="geometry" />
        </mxCell>
        <mxCell id="FOV5wTT--X5z5NpUAhja-47" value="" style="shape=curlyBracket;whiteSpace=wrap;html=1;rounded=1;flipH=1;labelPosition=right;verticalLabelPosition=middle;align=left;verticalAlign=middle;size=0.5;" parent="1" vertex="1">
          <mxGeometry x="470" y="660" width="20" height="40" as="geometry" />
        </mxCell>
        <mxCell id="FOV5wTT--X5z5NpUAhja-48" value="4KB" style="text;html=1;align=center;verticalAlign=middle;whiteSpace=wrap;rounded=0;" parent="1" vertex="1">
          <mxGeometry x="510" y="670" width="60" height="30" as="geometry" />
        </mxCell>
      </root>
    </mxGraphModel>
  </diagram>
</mxfile>
